<?xml version="1.0" standalone="no"?>
<!DOCTYPE svg PUBLIC "-//W3C//DTD SVG 20010904//EN"
 "http://www.w3.org/TR/2001/REC-SVG-20010904/DTD/svg10.dtd">
<svg version="1.0" xmlns="http://www.w3.org/2000/svg"
 width="3500.000000pt" height="3532.000000pt" viewBox="0 0 3500.000000 3532.000000"
 preserveAspectRatio="xMidYMid meet">

<g transform="translate(0.000000,3532.000000) scale(0.100000,-0.100000)"
fill="#000000" stroke="none">
<path d="M17453 35208 c-33 -57 -321 -555 -640 -1108 -319 -553 -866 -1500
-1215 -2105 -349 -605 -889 -1539 -1198 -2075 -564 -977 -1188 -2058 -2239
-3877 -1358 -2353 -1710 -2963 -2221 -3848 -298 -517 -804 -1392 -1123 -1945
-590 -1022 -1255 -2174 -2257 -3910 -306 -531 -843 -1460 -1192 -2065 -349
-605 -887 -1536 -1195 -2070 -1159 -2007 -1702 -2947 -2223 -3850 -1071 -1855
-1740 -3014 -1843 -3192 l-106 -183 2630 -2485 c1446 -1367 2634 -2485 2640
-2485 6 0 126 82 267 183 142 101 745 531 1342 957 597 425 1146 817 1220 870
74 53 655 467 1290 920 635 453 1216 867 1290 920 74 53 623 445 1220 870 597
426 1366 974 1710 1220 344 245 871 621 1172 835 l546 390 -3108 5 -3108 5
4192 7262 c2305 3994 4193 7262 4196 7262 3 0 1891 -3268 4196 -7262 l4192
-7262 -3141 -5 -3141 -5 5154 -3534 c2835 -1944 5189 -3558 5231 -3587 l75
-53 2270 2316 c1248 1274 2358 2406 2466 2518 l196 201 -40 70 c-49 83 -551
954 -2950 5109 -706 1223 -1471 2547 -2318 4015 -310 536 -815 1412 -1123
1945 -869 1505 -2262 3918 -3356 5812 -826 1432 -1919 3325 -3433 5948 -349
605 -889 1539 -1198 2075 -310 536 -806 1396 -1103 1910 -297 514 -808 1401
-1137 1970 -329 569 -646 1118 -704 1220 -59 102 -111 189 -115 193 -5 5 -35
-38 -68 -95z"/>
</g>
</svg>
